<?xml version="1.0" standalone="no"?>
<!DOCTYPE svg PUBLIC "-//W3C//DTD SVG 20010904//EN"
 "http://www.w3.org/TR/2001/REC-SVG-20010904/DTD/svg10.dtd">
<svg version="1.0" xmlns="http://www.w3.org/2000/svg"
 width="120.000000pt" height="120.000000pt" viewBox="0 0 120.000000 120.000000"
 preserveAspectRatio="xMidYMid meet">

<g transform="translate(0.000000,120.000000) scale(0.100000,-0.100000)"
fill="#000000" stroke="none">
<path d="M670 875 c0 -9 -9 -15 -21 -15 -26 0 -49 -23 -49 -49 0 -12 -4 -21
-10 -21 -5 0 -10 -16 -10 -35 l0 -35 -60 0 c-33 0 -60 4 -60 10 0 6 -11 10
-25 10 -16 0 -25 6 -25 15 0 8 -5 15 -10 15 -6 0 -30 21 -55 46 -40 42 -45 45
-59 31 -18 -17 -22 -77 -6 -77 6 0 10 -10 10 -23 0 -12 11 -31 25 -41 14 -10
25 -23 25 -27 0 -16 -43 -9 -56 9 -12 15 -13 13 -14 -21 0 -31 7 -45 40 -77
23 -22 50 -40 61 -40 11 0 17 -4 14 -10 -3 -5 -19 -10 -34 -10 -15 0 -30 -3
-33 -6 -9 -8 80 -94 97 -94 8 0 15 -4 15 -10 0 -5 -9 -10 -20 -10 -11 0 -20
-4 -20 -10 0 -5 -32 -10 -72 -12 -46 -2 -73 -7 -76 -15 -2 -8 6 -13 22 -13 14
0 26 -4 26 -10 0 -5 11 -10 25 -10 16 0 25 -6 25 -15 0 -13 21 -15 125 -15
102 0 127 3 131 15 4 9 19 15 38 15 22 0 37 8 50 25 10 14 27 25 37 25 11 0
19 5 19 10 0 6 5 10 11 10 14 0 39 25 39 39 0 6 5 11 10 11 6 0 10 9 10 20 0
11 7 23 15 26 8 4 15 15 15 25 0 10 5 19 10 19 6 0 10 22 10 49 0 34 4 51 15
55 10 3 15 19 15 45 0 31 7 46 35 74 35 35 36 47 3 47 -25 0 -23 9 8 35 17 15
22 25 15 29 -6 4 -14 0 -17 -8 -3 -9 -15 -16 -25 -16 -10 0 -19 -4 -19 -10 0
-5 -11 -10 -25 -10 -14 0 -25 5 -25 10 0 6 -11 10 -25 10 -16 0 -25 6 -25 15
0 12 -13 15 -60 15 -47 0 -60 -3 -60 -15z"/>
</g>
</svg>
